<svg width="40" height="40" viewBox="0 0 40 40" fill="none" xmlns="http://www.w3.org/2000/svg">
<mask id="mask0_106_6617" style="mask-type:alpha" maskUnits="userSpaceOnUse" x="0" y="0" width="40" height="40">
<rect width="40" height="40" fill="#D9D9D9"/>
</mask>
<g mask="url(#mask0_106_6617)">
<path d="M6.66683 33.3332C5.75016 33.3332 4.96544 33.0068 4.31266 32.354C3.65989 31.7012 3.3335 30.9165 3.3335 29.9998V9.99984C3.3335 9.08317 3.65989 8.29845 4.31266 7.64567C4.96544 6.99289 5.75016 6.6665 6.66683 6.6665H16.6668L20.0002 9.99984H33.3335C34.2502 9.99984 35.0349 10.3262 35.6877 10.979C36.3404 11.6318 36.6668 12.4165 36.6668 13.3332H18.6252L15.2918 9.99984H6.66683V29.9998L10.6668 16.6665H39.1668L34.8752 30.9582C34.6529 31.6804 34.2432 32.2568 33.646 32.6873C33.0488 33.1179 32.3891 33.3332 31.6668 33.3332H6.66683ZM10.1668 29.9998H31.6668L34.6668 19.9998H13.1668L10.1668 29.9998Z" fill="#1C1B1F"/>
</g>
</svg>
