<svg width="40" height="40" viewBox="0 0 40 40" fill="none" xmlns="http://www.w3.org/2000/svg">
<mask id="mask0_106_2458" style="mask-type:alpha" maskUnits="userSpaceOnUse" x="0" y="0" width="40" height="40">
<rect width="40" height="40" fill="#D9D9D9"/>
</mask>
<g mask="url(#mask0_106_2458)">
<path d="M25.0002 26.6663H31.6668V19.9997H29.1668V24.1663H25.0002V26.6663ZM20.0002 24.9997C21.3891 24.9997 22.5696 24.5136 23.5418 23.5413C24.5141 22.5691 25.0002 21.3886 25.0002 19.9997C25.0002 18.6108 24.5141 17.4302 23.5418 16.458C22.5696 15.4858 21.3891 14.9997 20.0002 14.9997C18.6113 14.9997 17.4307 15.4858 16.4585 16.458C15.4863 17.4302 15.0002 18.6108 15.0002 19.9997C15.0002 21.3886 15.4863 22.5691 16.4585 23.5413C17.4307 24.5136 18.6113 24.9997 20.0002 24.9997ZM8.3335 19.9997H10.8335V15.833H15.0002V13.333H8.3335V19.9997ZM3.3335 31.6663V8.33301H36.6668V31.6663H3.3335ZM6.66683 28.333H33.3335V11.6663H6.66683V28.333Z" fill="#1C1B1F"/>
</g>
</svg>
