<svg width="40" height="40" viewBox="0 0 40 40" fill="none" xmlns="http://www.w3.org/2000/svg">
<mask id="mask0_106_6620" style="mask-type:alpha" maskUnits="userSpaceOnUse" x="0" y="0" width="40" height="40">
<rect width="40" height="40" fill="#D9D9D9"/>
</mask>
<g mask="url(#mask0_106_6620)">
<path d="M8.33333 29.75C9.83333 28.2778 11.5764 27.1181 13.5625 26.2708C15.5486 25.4236 17.6944 25 20 25C22.3056 25 24.4514 25.4236 26.4375 26.2708C28.4236 27.1181 30.1667 28.2778 31.6667 29.75V8.33333H8.33333V29.75ZM20 21.6667C21.6111 21.6667 22.9861 21.0972 24.125 19.9583C25.2639 18.8194 25.8333 17.4444 25.8333 15.8333C25.8333 14.2222 25.2639 12.8472 24.125 11.7083C22.9861 10.5694 21.6111 10 20 10C18.3889 10 17.0139 10.5694 15.875 11.7083C14.7361 12.8472 14.1667 14.2222 14.1667 15.8333C14.1667 17.4444 14.7361 18.8194 15.875 19.9583C17.0139 21.0972 18.3889 21.6667 20 21.6667ZM8.33333 35C7.41667 35 6.63194 34.6736 5.97917 34.0208C5.32639 33.3681 5 32.5833 5 31.6667V8.33333C5 7.41667 5.32639 6.63194 5.97917 5.97917C6.63194 5.32639 7.41667 5 8.33333 5H31.6667C32.5833 5 33.3681 5.32639 34.0208 5.97917C34.6736 6.63194 35 7.41667 35 8.33333V31.6667C35 32.5833 34.6736 33.3681 34.0208 34.0208C33.3681 34.6736 32.5833 35 31.6667 35H8.33333ZM11.6667 31.6667H28.3333V31.25C27.1667 30.2778 25.875 29.5486 24.4583 29.0625C23.0417 28.5764 21.5556 28.3333 20 28.3333C18.4444 28.3333 16.9583 28.5764 15.5417 29.0625C14.125 29.5486 12.8333 30.2778 11.6667 31.25V31.6667ZM20 18.3333C19.3056 18.3333 18.7153 18.0903 18.2292 17.6042C17.7431 17.1181 17.5 16.5278 17.5 15.8333C17.5 15.1389 17.7431 14.5486 18.2292 14.0625C18.7153 13.5764 19.3056 13.3333 20 13.3333C20.6944 13.3333 21.2847 13.5764 21.7708 14.0625C22.2569 14.5486 22.5 15.1389 22.5 15.8333C22.5 16.5278 22.2569 17.1181 21.7708 17.6042C21.2847 18.0903 20.6944 18.3333 20 18.3333Z" fill="#1C1B1F"/>
</g>
</svg>
