<svg width="24" height="27" viewBox="0 0 24 27" fill="none" xmlns="http://www.w3.org/2000/svg">
<path d="M15.8084 22.9423C14.739 24.4423 13.4034 25.1923 11.8 25.1923C10.1966 25.1923 8.86101 24.4423 7.79156 22.9423M19.9532 20.6923H3.64683C3.17839 20.6925 2.71828 20.5764 2.31354 20.3557C1.90881 20.1351 1.57395 19.8178 1.34321 19.4364C1.11246 19.055 0.994104 18.6232 1.00023 18.185C1.00635 17.7468 1.13673 17.3179 1.37805 16.9423C2.95166 14.4887 3.78296 11.6812 3.78312 8.81981V7.19231C3.78312 5.60101 4.45883 4.07488 5.66159 2.94967C6.86436 1.82445 8.49566 1.19231 10.1966 1.19231H13.4034C15.1043 1.19231 16.7356 1.82445 17.9384 2.94967C19.1412 4.07488 19.8169 5.60101 19.8169 7.19231V8.81981C19.8169 11.6803 20.6474 14.4898 22.2219 16.9423C22.4633 17.3179 22.5937 17.7468 22.5998 18.185C22.6059 18.6232 22.4875 19.055 22.2568 19.4364C22.0261 19.8178 21.6912 20.1351 21.2865 20.3557C20.8817 20.5764 20.4216 20.6925 19.9532 20.6923Z" stroke="black" stroke-width="2" stroke-linecap="round" stroke-linejoin="round"/>
</svg>
